HIERARCHY
ROOT Hips
{
	OFFSET 0.000000 0.000000 0.000000
	CHANNELS 6 Xposition Yposition Zposition Xrotation Yrotation Zrotation
	JOINT LeftUpLeg_virtual
	{
		OFFSET 0.000000 0.000000 0.000000
		CHANNELS 3 Xrotation Yrotation Zrotation
		JOINT LeftUpLeg
		{
			OFFSET 11.394100 -6.187798 -0.413800
			CHANNELS 3 Xrotation Yrotation Zrotation
			JOINT LeftLeg
			{
				OFFSET 0.430247 -32.302673 3.732800
				CHANNELS 3 Xrotation Yrotation Zrotation
				JOINT LeftFoot
				{
					OFFSET -0.430247 -48.264931 -6.423300
					CHANNELS 3 Xrotation Yrotation Zrotation
					JOINT LeftToeBase
					{
						OFFSET 4.230900 -16.068199 23.438400
						CHANNELS 3 Xrotation Yrotation Zrotation
						JOINT LeftToe_End
						{
							OFFSET 4.510700 0.695400 19.974600
							CHANNELS 3 Xrotation Yrotation Zrotation
							End Site
							{
								OFFSET 0 0 0
							}
						}
					}
				}
			}
		}
	}
	JOINT RightUpLeg_virtual
	{
		OFFSET 0.000000 0.000000 0.000000
		CHANNELS 3 Xrotation Yrotation Zrotation
		JOINT RightUpLeg
		{
			OFFSET -11.333700 -6.187798 -0.413800
			CHANNELS 3 Xrotation Yrotation Zrotation
			JOINT RightLeg
			{
				OFFSET -0.430392 -32.302628 3.733000
				CHANNELS 3 Xrotation Yrotation Zrotation
				JOINT RightFoot
				{
					OFFSET 0.430392 -48.264973 -6.423500
					CHANNELS 3 Xrotation Yrotation Zrotation
					JOINT RightToeBase
					{
						OFFSET -4.230900 -16.068199 23.438400
						CHANNELS 3 Xrotation Yrotation Zrotation
						JOINT RightToe_End
						{
							OFFSET -4.510700 0.695400 19.974600
							CHANNELS 3 Xrotation Yrotation Zrotation
							End Site
							{
								OFFSET 0 0 0
							}
						}
					}
				}
			}
		}
	}
	JOINT Spine_virtual
	{
		OFFSET 0.000000 0.000000 0.000000
		CHANNELS 3 Xrotation Yrotation Zrotation
		JOINT Spine
		{
			OFFSET -0.002400 12.777504 0.315300
			CHANNELS 3 Xrotation Yrotation Zrotation
			JOINT Spine1
			{
				OFFSET -0.002067 5.816869 0.032633
				CHANNELS 3 Xrotation Yrotation Zrotation
				JOINT Spine1_split
				{
					OFFSET -0.002067 5.816869 0.032633
					CHANNELS 3 Xrotation Yrotation Zrotation
					JOINT Spine2
					{
						OFFSET -0.002067 5.816869 0.032633
						CHANNELS 3 Xrotation Yrotation Zrotation
						JOINT Neck_virtual
						{
							OFFSET 0.000000 0.000000 0.000000
							CHANNELS 3 Xrotation Yrotation Zrotation
							JOINT Neck
							{
								OFFSET -0.003700 21.199493 -0.826900
								CHANNELS 3 Xrotation Yrotation Zrotation
								JOINT Head
								{
									OFFSET 0.000000 20.442200 4.834800
									CHANNELS 3 Xrotation Yrotation Zrotation
									JOINT HeadTop_End
									{
										OFFSET 0.000000 34.668396 4.968400
										CHANNELS 3 Xrotation Yrotation Zrotation
										End Site
										{
											OFFSET 0 0 0
										}
									}
								}
							}
						}
						JOINT LeftShoulder_virtual
						{
							OFFSET 0.000000 0.000000 0.000000
							CHANNELS 3 Xrotation Yrotation Zrotation
							JOINT LeftShoulder
							{
								OFFSET 3.288150 8.794197 -1.372250
								CHANNELS 3 Xrotation Yrotation Zrotation
								JOINT LeftShoulder_split
								{
									OFFSET 3.288150 8.794197 -1.372250
									CHANNELS 3 Xrotation Yrotation Zrotation
									JOINT LeftArm
									{
										OFFSET 11.953299 -2.279007 -0.146200
										CHANNELS 3 Xrotation Yrotation Zrotation
										JOINT LeftForeArm
										{
											OFFSET 18.448900 0.000000 0.000000
											CHANNELS 3 Xrotation Yrotation Zrotation
											JOINT LeftHand
											{
												OFFSET 29.527798 0.000000 0.000000
												CHANNELS 3 Xrotation Yrotation Zrotation
												End Site
												{
													OFFSET 0 0 0
												}
											}
										}
									}
								}
							}
						}
						JOINT RightShoulder_virtual
						{
							OFFSET 0.000000 0.000000 0.000000
							CHANNELS 3 Xrotation Yrotation Zrotation
							JOINT RightShoulder
							{
								OFFSET -3.249400 8.794197 -1.372250
								CHANNELS 3 Xrotation Yrotation Zrotation
								JOINT RightShoulder_split
								{
									OFFSET -3.249400 8.794197 -1.372250
									CHANNELS 3 Xrotation Yrotation Zrotation
									JOINT RightArm
									{
										OFFSET -11.953299 -2.279007 -0.146200
										CHANNELS 3 Xrotation Yrotation Zrotation
										JOINT RightForeArm
										{
											OFFSET -18.448900 0.000000 0.000000
											CHANNELS 3 Xrotation Yrotation Zrotation
											JOINT RightHand
											{
												OFFSET -29.527802 0.000000 0.000000
												CHANNELS 3 Xrotation Yrotation Zrotation
												End Site
												{
													OFFSET 0 0 0
												}
											}
										}
									}
								}
							}
						}
					}
				}
			}
		}
	}
}
MOTION
Frames: 6
Frame Time: 0.03333333
-3.454146 94.166100 51.140682 0.000000 0.000000 0.000000 27.244629 4.997427 -14.694068 -70.272265 -3.687793 14.529037 40.504736 5.692010 -8.987967 10.967833 -0.645486 10.530108 -1.353400 -0.023272 -0.649814 0.000000 0.000000 0.000000 27.916347 9.900375 -16.341535 -21.110098 -19.749548 -21.608024 83.779292 -0.455545 -5.016565 40.848848 0.854156 11.709938 13.813469 0.428695 -1.734907 0.000000 0.000000 0.000000 26.735611 9.299300 -16.715051 6.503652 11.998981 -9.764275 12.569041 11.696412 -7.338624 1.492119 2.070900 0.206734 0.000000 0.000000 0.000000 12.028448 11.065863 -7.637923 -10.397559 -7.570655 7.584724 -25.647519 -31.692057 19.508818 0.000000 0.000000 0.000000 11.609838 11.724149 -7.611143 0.103936 4.408169 4.199903 -3.493679 0.183182 -0.641027 32.812331 -41.243455 -14.700240 0.556982 -29.928472 -0.486459 0.000000 0.000000 0.000000 11.892038 11.154941 -7.978462 5.374246 14.273458 -6.490598 0.092737 5.172274 -0.764646 -17.735768 57.193958 33.597905 -1.906683 40.875182 -0.141825 0.000000 0.000000 0.000000 
-3.581971 93.983856 51.520821 0.000000 0.000000 0.000000 25.525040 5.712693 -14.055576 -68.926116 -2.330785 14.861132 41.142157 5.872514 -9.279039 8.954578 -0.263906 10.979440 -1.313769 -0.077708 -0.185945 0.000000 0.000000 0.000000 26.034922 9.801534 -15.475899 -21.965600 -20.509726 -19.830380 79.822010 0.205745 -4.591724 36.645631 -0.262176 8.638804 15.497803 0.390183 -0.748760 0.000000 0.000000 0.000000 24.438584 9.641298 -15.992809 6.410639 10.980093 -10.247411 12.948289 10.810127 -7.467132 1.189945 2.317863 0.163908 0.000000 0.000000 0.000000 12.283742 10.306744 -7.775965 -10.587166 -7.277182 7.174803 -25.705323 -31.313740 20.111707 0.000000 0.000000 0.000000 11.678363 11.007538 -7.696847 0.181553 4.104789 5.101771 -3.553940 -1.055346 -1.342029 31.076473 -43.503944 -7.265168 0.678525 -27.921103 -0.321118 0.000000 0.000000 0.000000 12.058201 10.418509 -8.000972 5.091410 13.651345 -5.493992 0.686475 4.078782 -0.498693 -16.935456 53.322016 27.148163 -1.875416 39.493561 0.109322 0.000000 0.000000 0.000000 
-3.544449 93.979385 51.887505 0.000000 0.000000 0.000000 24.103526 6.479945 -13.676241 -67.476149 -0.919656 15.003899 41.620335 5.741868 -9.387193 7.167332 -0.094959 11.294822 -1.387308 -0.095753 0.199747 0.000000 0.000000 0.000000 24.201029 10.006430 -14.894023 -21.928910 -20.902365 -17.836330 74.555989 0.981670 -4.357081 32.472031 -1.252788 3.714299 15.681790 0.713581 2.555244 0.000000 0.000000 0.000000 22.367237 9.950719 -15.494943 6.255480 9.927355 -10.614614 13.311241 9.623138 -7.582278 1.059336 2.223544 0.120152 0.000000 0.000000 0.000000 12.585345 9.275248 -7.914500 -10.806455 -7.094117 6.792186 -25.374248 -30.717331 20.842416 0.000000 0.000000 0.000000 11.860624 9.978566 -7.768819 0.258986 3.688771 5.890114 -3.443628 -2.033826 -1.990586 27.689015 -46.523181 -1.417516 0.731157 -25.247260 -0.062988 0.000000 0.000000 0.000000 12.383461 9.408218 -8.050537 4.991142 13.210598 -5.566642 1.061685 2.962276 -0.412138 -16.736178 50.102081 22.026482 -1.811059 37.012556 0.339733 0.000000 0.000000 0.000000 
-3.350230 94.144775 52.254158 0.000000 0.000000 0.000000 22.762615 7.225752 -13.536616 -65.878623 0.383427 15.105858 42.042311 5.217433 -9.291808 5.929014 -0.104128 11.376851 -1.628466 -0.078894 0.440774 0.000000 0.000000 0.000000 22.426619 10.361961 -14.597999 -21.909191 -20.725941 -16.281240 68.654814 2.506682 -4.669488 30.961528 -1.012833 -0.289477 9.909444 0.639078 7.783402 0.000000 0.000000 0.000000 20.552166 10.240847 -15.266871 6.060410 8.693011 -10.876514 13.690371 8.056162 -7.612240 1.056809 1.974922 0.022397 0.000000 0.000000 0.000000 12.929401 7.851576 -7.955833 -10.927454 -6.956397 6.482822 -24.576491 -29.640180 21.708465 0.000000 0.000000 0.000000 12.198451 8.528877 -7.781139 0.330009 3.149287 6.511469 -3.382334 -2.429117 -2.412428 22.193784 -49.894580 2.163257 0.661905 -22.006938 0.236972 0.000000 0.000000 0.000000 12.838059 8.001011 -8.041460 5.048892 12.894820 -6.698148 1.233993 2.126474 -0.543578 -16.500557 47.543478 17.529477 -1.688509 34.490826 0.468051 0.000000 0.000000 0.000000 
-2.921724 94.430992 52.857628 0.000000 0.000000 0.000000 21.380913 7.642790 -13.587643 -64.166444 1.627897 15.334605 42.469365 4.461082 -9.011452 5.080713 -0.181598 11.517453 -1.814232 -0.064990 0.526752 0.000000 0.000000 0.000000 20.743588 10.725128 -14.615891 -22.436977 -20.066852 -15.480825 62.269154 4.915373 -5.496303 32.006075 0.630769 -1.588343 -1.541934 -1.110374 13.802625 0.000000 0.000000 0.000000 18.757438 10.260336 -15.299270 5.885288 7.199816 -11.028799 14.072145 6.154063 -7.508788 1.186640 1.763462 -0.164149 0.000000 0.000000 0.000000 13.270170 6.040131 -7.850661 -10.822687 -6.768339 6.234584 -23.399146 -27.984233 22.675707 0.000000 0.000000 0.000000 12.661706 6.647205 -7.669777 0.374405 2.541326 7.044985 -3.231779 -2.372476 -2.449382 14.518498 -52.929837 3.057353 0.430218 -18.666480 0.513444 0.000000 0.000000 0.000000 13.370410 6.196275 -7.938509 5.217263 12.542572 -8.662983 1.303721 1.501141 -0.712405 -16.568545 45.557840 13.610736 -1.538026 32.962650 0.503364 0.000000 0.000000 0.000000 
-2.279426 94.685593 53.596531 0.000000 0.000000 0.000000 19.848436 7.728870 -13.873958 -62.356813 2.846292 15.824032 42.760932 3.671750 -8.590314 4.325614 -0.231697 11.836877 -1.667197 -0.043177 0.448743 0.000000 0.000000 0.000000 19.216256 11.075897 -14.953229 -23.178868 -19.233328 -15.213830 55.489160 7.756639 -6.392634 33.027335 2.902015 -1.117178 -13.710988 -4.470800 18.871797 0.000000 0.000000 0.000000 16.936038 9.738135 -15.540041 5.728616 5.474232 -11.060786 14.421926 4.005865 -7.244783 1.345600 1.755329 -0.346062 0.000000 0.000000 0.000000 13.599176 3.926379 -7.569956 -10.522360 -6.494638 6.040760 -22.032920 -25.779393 23.644165 0.000000 0.000000 0.000000 13.141029 4.457397 -7.400231 0.381918 1.996983 7.523580 -3.076839 -2.053928 -2.060506 4.995554 -55.216240 1.427672 0.050046 -15.920461 0.705639 0.000000 0.000000 0.000000 13.878291 4.071987 -7.687928 5.373744 12.098679 -11.076239 1.201134 0.870073 -0.671654 -18.195235 44.141078 10.921274 -1.391474 32.747103 0.460251 0.000000 0.000000 0.000000 
